<svg width="100" height="32" viewBox="0 0 100 32" fill="none" xmlns="http://www.w3.org/2000/svg">
<path d="M76.4017 18.3798C76.7972 18.3798 77.1326 18.5172 77.4073 18.792C77.6819 19.0669 77.82 19.3967 77.82 19.7815C77.82 20.1663 77.6819 20.5016 77.4073 20.7875C77.1326 21.0623 76.7972 21.1998 76.4017 21.1998C76.0168 21.1998 75.6866 21.0623 75.412 20.7875C75.1373 20.5016 75 20.1663 75 19.7815C75 19.3967 75.1373 19.0669 75.412 18.792C75.6866 18.5172 76.0168 18.3798 76.4017 18.3798Z" fill="#3E66FB"/>
<path d="M67.9219 21.1797C65.3047 21.1797 63.7188 19.4688 63.7188 16.7109V16.7031C63.7188 13.9688 65.3203 12.2109 67.8281 12.2109C70.3359 12.2109 71.8984 13.9297 71.8984 16.5312V17.2422H65.9766C66 18.6562 66.7578 19.4766 67.9688 19.4766C68.9688 19.4766 69.5234 18.9453 69.6797 18.6172L69.7031 18.5703H71.8281L71.8125 18.6484C71.5469 19.7266 70.4375 21.1797 67.9219 21.1797ZM67.8672 13.9219C66.875 13.9219 66.1406 14.5938 66 15.8125H69.7109C69.5703 14.5625 68.8594 13.9219 67.8672 13.9219Z" fill="#414244"/>
<path d="M55.8047 21V14.1172H54.4141V12.3984H55.8047V11.5938C55.8047 9.88281 56.6797 9.02344 58.7578 9.02344C59.2188 9.02344 59.6016 9.05469 59.9297 9.10938V10.6328C59.7891 10.6094 59.5469 10.5859 59.25 10.5859C58.3672 10.5859 58.0391 11 58.0391 11.75V12.3984H59.8594V14.1172H58.0859V21H55.8047Z" fill="#414244"/>
<path d="M49.3047 11.0781C48.6016 11.0781 48.0156 10.5156 48.0156 9.8125C48.0156 9.10156 48.6016 8.53906 49.3047 8.53906C50.0078 8.53906 50.5859 9.10156 50.5859 9.8125C50.5859 10.5156 50.0078 11.0781 49.3047 11.0781ZM48.1562 21V12.3984H50.4375V21H48.1562Z" fill="#414244"/>
<path d="M36.3672 21V9.72656H38.7266V19.0547H43.7422V21H36.3672Z" fill="#414244"/>
<path d="M20 4.91905C20 5.302 19.8734 5.61835 19.6203 5.8681C19.384 6.1012 19.0717 6.21775 18.6835 6.21775C18.2785 6.21775 17.9831 6.12617 17.7975 5.94302C17.6287 5.74322 17.4937 5.5351 17.3924 5.31865C17.308 5.08555 17.2236 4.87742 17.1392 4.69427C17.0717 4.49447 16.9451 4.39457 16.7595 4.39457C16.5738 4.39457 16.4557 4.4695 16.4051 4.61935C16.3713 4.7692 16.3544 4.91072 16.3544 5.04392C16.3544 5.56007 16.3713 6.0679 16.4051 6.5674C16.4388 7.0669 16.4557 7.57473 16.4557 8.09088V22.8012C16.4557 23.4339 16.4135 24.0582 16.3291 24.6743C16.2447 25.2903 16.0759 25.8398 15.8228 26.3226C15.5696 26.8221 15.1983 27.2217 14.7089 27.5214C14.2363 27.8378 13.6034 27.996 12.8101 27.996C12.5063 27.996 12.1857 27.9627 11.8481 27.8961C11.5274 27.8295 11.2236 27.7212 10.9367 27.5714C10.6667 27.4215 10.4388 27.2217 10.2532 26.972C10.0844 26.7389 10 26.4475 10 26.0979C10 25.7149 10.1266 25.3986 10.3797 25.1488C10.6329 24.8991 10.9536 24.7742 11.3418 24.7742C11.7468 24.7742 12.0338 24.8658 12.2025 25.0489C12.3882 25.2487 12.5232 25.4568 12.6076 25.6733C12.7089 25.9064 12.7932 26.1145 12.8608 26.2977C12.9283 26.4975 13.0464 26.5974 13.2152 26.5974C13.3502 26.5974 13.443 26.5474 13.4937 26.4475C13.5612 26.3643 13.6034 26.256 13.6203 26.1228C13.654 26.0063 13.6624 25.8814 13.6456 25.7482C13.6456 25.6317 13.6456 25.5318 13.6456 25.4485C13.6456 25.0156 13.6287 24.591 13.5949 24.1748C13.5612 23.7585 13.5443 23.334 13.5443 22.9011V10.2637C13.5443 9.7975 13.5359 9.298 13.519 8.7652C13.519 8.21575 13.5359 7.67463 13.5696 7.14183C13.6034 6.59237 13.6793 6.0679 13.7975 5.5684C13.9325 5.0689 14.135 4.62767 14.4051 4.24472C14.6751 3.86177 15.038 3.56207 15.4937 3.34562C15.9494 3.11252 16.5232 2.99597 17.2152 2.99597C17.5021 2.99597 17.8059 3.0376 18.1266 3.12085C18.4641 3.18745 18.7679 3.29567 19.038 3.44552C19.3249 3.59537 19.5527 3.79517 19.7215 4.04492C19.9072 4.27802 20 4.5694 20 4.91905Z" fill="#2F6FED"/>
</svg>
